<svg xmlns="http://www.w3.org/2000/svg" viewBox="0 0 375.51 512"><defs><style>.cls-1{fill:#ea6a25;}.cls-2{fill:#fff;}.cls-3{fill:#eb6a25;}</style></defs><title>logo</title><g id="Arrows"><polyline class="cls-1" points="68.23 472.34 136.46 404.11 102.29 404.11 102.29 0 34.17 0 34.17 404.11 0 404.11 68.23 472.34"/><polyline class="cls-1" points="145.46 472.34 213.69 404.11 179.52 404.11 179.52 0 111.4 0 111.4 404.11 77.23 404.11 145.46 472.34"/><polyline class="cls-1" points="222.69 472.34 290.92 404.11 256.75 404.11 256.75 0 188.63 0 188.63 404.11 154.46 404.11 222.69 472.34"/><polyline class="cls-1" points="299.92 472.34 368.15 404.11 333.98 404.11 333.98 0 265.86 0 265.86 404.11 231.69 404.11 299.92 472.34"/><rect class="cls-1" x="229.33" y="456.07" width="46.33" height="46.33" transform="translate(-333.16 318.91) rotate(-45)"/></g><g id="atom"><line class="cls-2" x1="93.39" y1="356.39" x2="93.39" y2="403.13"/><rect class="cls-2" x="89.8" y="356.39" width="7.18" height="46.75"/><path class="cls-2" d="M136.48,406.73c-15.86,0-28.75-12.1-28.75-27s12.89-27,28.75-27,28.75,12.09,28.75,27S152.33,406.73,136.48,406.73Zm0-46.75c-11.9,0-21.57,8.88-21.57,19.78s9.67,19.78,21.57,19.78S158,390.67,158,379.76,148.37,360,136.48,360Z" transform="translate(-68.25)"/><path class="cls-2" d="M240.42,406.28H213.54a7.77,7.77,0,0,1-7.36-7.37V340.37h7.18v58.54s.28.16.42.21l26.64,0Z" transform="translate(-68.25)"/><rect class="cls-2" x="118.58" y="355.16" width="53.59" height="7.18"/><path class="cls-2" d="M290.94,406.86c-16.58,0-30.06-12.15-30.06-27.1s13.48-27.1,30.06-27.1S321,364.82,321,379.76,307.51,406.86,290.94,406.86Zm0-47c-12.61,0-22.88,8.94-22.88,19.92s10.27,19.92,22.88,19.92,22.87-8.93,22.87-19.92S303.55,359.84,290.94,359.84Z" transform="translate(-68.25)"/><rect class="cls-2" x="271.79" y="356.25" width="7.18" height="47.02"/><path class="cls-2" d="M398,403.27h-7.18V367.63c-.17-1-1.21-4.33-7.38-4.33-7.81,0-10.73,5.47-10.85,5.7l-5.13,9.9-1.64-11c-.13-.72-1.17-4.61-7.41-4.61-7.83,0-11.22,6-11.22,9.12v16.22H340V372.42c0-6.83,6.4-16.3,18.41-16.3,5.74,0,9.44,2.21,11.68,4.81a19.65,19.65,0,0,1,13.35-4.81c10.77,0,14.22,7.17,14.55,11Z" transform="translate(-68.25)"/><rect class="cls-2" x="297.59" y="363.45" width="7.18" height="39.82"/></g><g id="R"><path class="cls-3" d="M431.34,381.72a12.42,12.42,0,1,1,12.41-12.41A12.42,12.42,0,0,1,431.34,381.72Zm0-23A10.62,10.62,0,1,0,442,369.31,10.63,10.63,0,0,0,431.34,358.69Z" transform="translate(-68.25)"/><g id="R-2" data-name="R"><path class="cls-3" d="M428.12,376.33h-1V362.27h1Zm3.71-5.22.09,0c1.4-.56,3.51-1.41,3.51-4.32a4.39,4.39,0,0,0-3.9-4.46l-3.41,0v1h3.33a3.39,3.39,0,0,1,3,3.48c0,2-1.21,2.73-2.81,3.37h-3.52v1Zm2.6,5.23h1.11l-2.9-6.12-.86.4Z" transform="translate(-68.25)"/></g></g></svg>